<?xml version="1.0" encoding="utf-8"?>
<!-- Generator: Adobe Illustrator 15.0.2, SVG Export Plug-In  -->
<!DOCTYPE svg PUBLIC "-//W3C//DTD SVG 1.1//EN" "http://www.w3.org/Graphics/SVG/1.1/DTD/svg11.dtd" [
	<!ENTITY ns_flows "http://ns.adobe.com/Flows/1.0/">
]>
<svg version="1.1"
	 xmlns="http://www.w3.org/2000/svg" xmlns:xlink="http://www.w3.org/1999/xlink" xmlns:a="http://ns.adobe.com/AdobeSVGViewerExtensions/3.0/"
	 x="0px" y="0px" width="467px" height="110px" viewBox="-0.196 0 467 110"
	 overflow="visible" enable-background="new -0.196 0 467 110" xml:space="preserve">
<defs>
</defs>
<path fill="#007D43" d="M406.5,101.537c5.523-0.318,7.049-1.119,11.455-11.852l17.619-43.037h1.356l21.705,48.965
	c2.082,4.645,4.006,5.924,8.168,5.924v2.846c-5.526-0.082-9.051-0.242-12.254-0.242c-3.201,0-6.646,0.16-12.473,0.242v-2.846
	c4.707,0,5.985-0.797,5.985-2.961c0-0.881-0.561-2.564-2.239-6.568l-3.105-7.379h-17.555l-2.65,6.43
	c-2.002,5.605-2.211,6.637-2.211,7.437c0,2.084,0.453,2.965,5.713,3.043v2.846c-7.18-0.241-7.979-0.241-9.905-0.241
	c-2.002,0-2.804,0-9.609,0.241V101.537L406.5,101.537z M441.223,81.172l-7.918-18.824l-6.901,18.824H441.223z"/>
<path fill="#007D43" d="M259.359,101.537c5.202-0.078,6.645-1.998,6.645-6.484V55.811c0-4.485-1.441-6.408-6.645-6.485v-2.916
	c2.719,0.08,6.645,0.239,10.729,0.239c12.254,0,22.104-0.159,29.553-0.239l0.32,13.965H297.4
	c-1.285-7.687-4.729-10.408-14.341-10.408h-6.965v22.976h6.164c7.291,0,8.328-2.474,8.894-7.519h2.721
	c-0.08,3.121-0.16,6.084-0.16,8.646c0,3.767,0.08,6.81,0.16,10.013h-2.721c0-6.326-2.004-7.761-8.972-7.761h-6.086v18.892
	c0,3.685,1.521,5.688,9.052,5.688c8.168,0,13.854-1.521,15.772-11.613h2.725c-0.481,3.846-1.2,11.012-1.2,15.098
	c-7.771-0.082-17.938-0.242-30.515-0.242c-6.166,0-10.973,0.16-12.569,0.242V101.537L259.359,101.537z"/>
<path fill="#007D43" d="M311.65,101.537c5.207-0.078,6.647-1.998,6.647-6.484V55.811c0-4.485-1.44-6.408-6.647-6.485v-2.916
	c3.768,0.08,6.971,0.239,9.932,0.239c5.205,0,10.492-0.239,15.697-0.239c13.932,0,18.34,7.479,18.34,15.327
	c0,5.447-3.365,11.533-11.135,13.937l10.012,18.418c3.604,6.65,5.527,8.17,10.09,8.81v1.924c-1.201,0.08-2.402,0.16-3.686,0.16
	c-10.648,0-15.054-3.685-19.537-13.215l-3.123-6.394c-3.361-7.127-4.482-7.688-9.853-7.771v17.447c0,4.486,1.443,6.406,6.648,6.484
	v2.846c-6.406-0.162-9.131-0.242-11.693-0.242c-2.562,0-5.283,0.08-11.692,0.242V101.537L311.65,101.537z M328.389,74.221
	c1.521,0.32,3.687,0.562,5.289,0.562c7.205,0,11.529-3.113,11.529-10.884c0-5.846-2.963-14.573-13.375-14.573
	c-1.439,0-2.322,0.077-3.443,0.319V74.221z"/>
<path fill="#007D43" d="M375.975,101.537c5.207-0.078,6.646-1.998,6.646-6.484V50.926h-7.047c-6.404,0-10.652,1.762-11.131,11.852
	h-2.962l0.479-16.368c8.568,0.08,17.139,0.162,25.705,0.239c8.57,0.08,17.137-0.159,25.707-0.239l0.481,16.368h-2.963
	c-0.479-10.09-4.725-11.852-11.133-11.852h-7.047v44.127c0,4.486,1.439,6.406,6.646,6.484v2.846
	c-6.404-0.162-9.13-0.242-11.693-0.242c-2.562,0-5.283,0.08-11.689,0.242V101.537L375.975,101.537z"/>
<path fill="#007D43" d="M267.416,34.906l-4.613-9.703h-2.16v9.703h-6.409V8.832h10.327c5.785,0,8.898,4.102,8.898,8.387
	c0,3.553-2.197,5.787-4.248,6.812l5.641,10.875H267.416z M264.268,14.582h-3.625v5.273h3.625c1.759,0,2.783-1.281,2.783-2.638
	S266.025,14.582,264.268,14.582z"/>
<path fill="#007D43" d="M292.682,35.127c-3.989,0-7.25-0.732-9.887-3.443l4.102-4.102c1.355,1.355,3.734,1.832,5.822,1.832
	c2.527,0,3.736-0.842,3.736-2.344c0-0.623-0.146-1.135-0.514-1.539c-0.33-0.328-0.88-0.586-1.722-0.695l-3.149-0.439
	c-2.308-0.33-4.064-1.098-5.236-2.307c-1.209-1.246-1.795-3.004-1.795-5.236c0-4.762,3.59-8.239,9.521-8.239
	c3.736,0,6.558,0.879,8.789,3.112l-4.026,4.027c-1.648-1.648-3.81-1.537-4.943-1.537c-2.234,0-3.15,1.281-3.15,2.416
	c0,0.33,0.109,0.807,0.515,1.209c0.328,0.33,0.879,0.658,1.793,0.77l3.149,0.439c2.345,0.328,4.027,1.061,5.127,2.16
	c1.392,1.355,1.941,3.295,1.941,5.713C302.754,32.234,298.176,35.127,292.682,35.127z"/>
<path fill="#007D43" d="M313.92,34.906V8.832h6.408v26.074H313.92z"/>
<path fill="#007D43" d="M344.02,14.545v20.361h-6.407V14.545h-6.41V8.832h19.227v5.713H344.02z"/>
<path fill="#007D43" d="M372.947,24.287v10.619h-6.408V24.287l-7.875-15.455h6.996l4.102,9.375l4.064-9.375h6.994L372.947,24.287z"
	/>
<path fill="#007D43" d="M418.572,32.197c-1.904,1.904-4.103,2.93-7.287,2.93c-3.186,0-5.383-1.025-7.287-2.93
	c-2.748-2.746-2.637-6.408-2.637-10.328c0-3.918-0.111-7.58,2.637-10.326c1.904-1.904,4.102-2.93,7.287-2.93
	c3.185,0,5.383,1.025,7.287,2.93c2.746,2.746,2.637,6.408,2.637,10.326C421.209,25.789,421.318,29.451,418.572,32.197z
	 M413.848,15.461c-0.475-0.623-1.391-1.135-2.562-1.135s-2.088,0.512-2.564,1.135c-0.586,0.77-0.951,1.648-0.951,6.408
	c0,4.762,0.365,5.604,0.951,6.373c0.478,0.623,1.394,1.172,2.564,1.172s2.088-0.549,2.562-1.172c0.586-0.77,0.953-1.611,0.953-6.373
	C414.801,17.109,414.434,16.23,413.848,15.461z"/>
<path fill="#007D43" d="M439.004,14.545v4.578h9.668v5.713h-9.668v10.07h-6.408V8.832h17.726v5.713H439.004z"/>
<path fill="#007D43" d="M91.332,101.537c5.527-0.318,7.049-1.119,11.453-11.852l17.621-43.037h1.359l21.703,48.965
	c2.082,4.645,4.004,5.924,8.166,5.924v2.846c-5.525-0.082-9.049-0.242-12.252-0.242c-3.201,0-6.645,0.16-12.475,0.242v-2.846
	c4.709,0,5.988-0.797,5.988-2.961c0-0.881-0.561-2.564-2.242-6.568l-3.105-7.379h-17.55l-2.652,6.43
	c-2.004,5.605-2.211,6.637-2.211,7.437c0,2.084,0.453,2.965,5.713,3.043v2.846c-7.184-0.241-7.982-0.241-9.904-0.241
	c-2.002,0-2.803,0-9.611,0.241L91.332,101.537L91.332,101.537z M126.055,81.172l-7.918-18.824l-6.9,18.824H126.055z"/>
<path fill="#007D43" d="M156.125,101.537c5.203-0.078,6.646-1.998,6.646-6.484V55.811c0-4.485-1.443-6.408-6.646-6.485v-2.916
	c6.406,0.161,9.127,0.239,11.689,0.239c2.563,0,5.287-0.078,11.694-0.239v2.916c-5.204,0.077-6.646,2-6.646,6.485v39.242
	c0,4.164,2.32,5.525,8.969,5.525c10.572,0,15.855-1.361,17.457-11.293h2.723l-1.283,15.098c-4.002-0.082-9.848-0.082-16.653-0.162
	c-6.729-0.08-14.339-0.08-22.025-0.08c-2.403,0-4.483,0.08-5.924,0.242L156.125,101.537L156.125,101.537z"/>
<path fill="#007D43" d="M206.131,101.537c5.207-0.078,6.646-1.998,6.646-6.484V55.811c0-4.485-1.439-6.408-6.646-6.485v-2.916
	c3.846,0.161,6.971,0.239,10.17,0.239c4.967,0,9.933-0.239,14.9-0.239c8.326,0,18.494,2.916,18.494,14.526
	c0,6.326-4.961,11.533-13.451,12.894v0.162c9.611,1.36,15.774,5.446,15.774,14.813c0,4.406-1.842,8.57-4.487,11.053
	c-3.279,3.041-7.283,4.525-16.092,4.525c-5.367,0-12.013-0.242-16.179-0.242c-3.604,0-6.565,0.08-9.131,0.242L206.131,101.537
	L206.131,101.537z M222.869,73.229h3.848c7.963,0,12.894-3.192,12.894-10.451c0-8.329-4.404-13.133-13.136-13.133h-3.604
	L222.869,73.229L222.869,73.229z M222.869,95.934c0,3.844,1.522,4.965,6.809,4.965c7.688,0,11.451-3.604,11.451-10.409
	c0-9.009-6.406-14.312-17.217-14.312h-1.043V95.934L222.869,95.934z"/>
<path fill="#007D43" d="M122.559,35.127c-5.42,0-9.852-3.662-9.852-9.375V8.832h6.408v16.773c0,2.416,1.318,3.809,3.443,3.809
	c2.123,0,3.516-1.393,3.516-3.809V8.832h6.408v16.92C132.482,31.465,127.979,35.127,122.559,35.127z"/>
<path fill="#007D43" d="M159.213,34.906l-8.35-13.109v13.109h-6.408V8.832h5.602l8.349,13.111V8.832h6.41v26.074H159.213z"/>
<path fill="#007D43" d="M177.227,34.906V8.832h6.41v26.074H177.227z"/>
<path fill="#007D43" d="M206.777,34.906h-4.76l-8.605-26.074h6.627l4.395,14.576l4.322-14.576h6.664L206.777,34.906z"/>
<path fill="#007D43" d="M225.014,34.906V8.832h17.726v5.713h-11.316v4.359h9.668v5.713h-9.668v4.576h11.316v5.713H225.014z"/>
<path fill="#007D43" d="M41.547,109.525l-0.781-0.267c-0.514-0.176-12.707-4.399-24.684-14.743C1.568,81.968,0,63.062,0,55.516V8.82
	l1.363-0.662C12.797,2.592,25.564,0,41.547,0c15.979,0,28.742,2.592,40.172,8.158l1.363,0.664v46.693
	c0,7.545-1.566,26.448-16.074,39c-11.98,10.344-24.166,14.567-24.68,14.743L41.547,109.525z"/>
<path fill="#FFF1C0" d="M41.547,4.85c-14.58,0-26.291,2.236-36.697,7.021v30.543c4.279-2.51,7.879-5.471,10.607-8.627
	c3.232,3.736,7.674,7.207,13.037,9.969c5.371-2.762,9.818-6.232,13.049-9.969c3.23,3.736,7.68,7.207,13.049,9.969
	c5.361-2.762,9.801-6.232,13.029-9.969c2.729,3.156,6.33,6.117,10.611,8.627V11.871C67.83,7.086,56.121,4.85,41.547,4.85z
	 M60.084,29.188c-4.154,0-7.08-0.614-11.223-1.479c-0.748-0.156-1.48-0.232-2.172-0.232c-1.611,0-3.035,0.381-4.186,0.924
	c-0.338,0.16-0.656,0.334-0.961,0.513c-0.297-0.179-0.625-0.353-0.953-0.513c-1.162-0.543-2.572-0.924-4.184-0.924
	c-0.691,0-1.426,0.076-2.18,0.232c-4.143,0.863-7.072,1.479-11.227,1.479c-0.586,0-1.201-0.012-1.846-0.035l1.305-14
	c0.668,0.029,1.281,0.046,1.861,0.054l0.338-4.375l1.258,0.062c0.494,0.023,0.941,0.033,1.367,0.033
	c1.457,0,2.719-0.131,4.113-0.428c0.883-0.186,1.76-0.422,2.775-0.693c0.469-0.125,0.965-0.258,1.498-0.396
	c1.832-0.447,3.498-0.207,5.021,0.661c0.291,0.164,0.578,0.354,0.85,0.564c0.273-0.209,0.562-0.4,0.863-0.568
	c1.514-0.862,3.266-1.096,4.998-0.659c0.562,0.145,1.072,0.28,1.553,0.409c1,0.269,1.865,0.498,2.732,0.683
	c1.857,0.396,3.457,0.498,5.477,0.396l1.262-0.064l0.338,4.377c0.584-0.008,1.188-0.021,1.865-0.053l1.311,14
	C61.289,29.176,60.674,29.188,60.084,29.188z"/>
<path fill="#FFFFFF" d="M35.176,23.656l-0.109,0.027c-3.414,0.854-5.672,1.42-8.91,1.422l0.895-11.588
	c1.729,0,3.221-0.132,4.883-0.482c0.949-0.201,1.857-0.443,2.91-0.725c0.461-0.125,0.949-0.256,1.461-0.39
	c1.127-0.276,2.15-0.141,3.109,0.406c0.352,0.196,0.623,0.414,0.832,0.604v10.936C38.609,23.311,36.846,23.232,35.176,23.656z"/>
<path fill="#FFFFFF" d="M47.912,23.656c-1.717-0.43-3.422-0.361-5.072,0.211v-10.92c0.248-0.229,0.527-0.447,0.842-0.625
	c0.943-0.537,2.027-0.668,3.082-0.402c0.545,0.139,1.047,0.273,1.521,0.4c1.035,0.277,1.93,0.518,2.865,0.715
	c1.584,0.334,3.01,0.484,4.656,0.484c0.074,0,0.148-0.002,0.227-0.002l0.895,11.588C53.629,25.104,51.356,24.527,47.912,23.656z"/>
<path fill="#49965F" d="M41.551,48.461c4.766-1.076,9.15-2.701,13.041-4.705c-5.369-2.762-9.818-6.232-13.049-9.969
	c-3.23,3.736-7.682,7.207-13.057,9.965C32.385,45.762,36.775,47.387,41.551,48.461z"/>
<path fill="#05894F" d="M15.484,48.445c4.092,0.928,8.465,1.455,13.064,1.455c4.572,0,8.92-0.525,12.994-1.441
	c-4.77-1.074-9.146-2.703-13.043-4.705C24.615,45.752,20.24,47.369,15.484,48.445z"/>
<path fill="#05894F" d="M41.543,48.459c4.072,0.916,8.42,1.441,12.99,1.441c4.6,0,8.975-0.527,13.068-1.457
	c-4.756-1.074-9.129-2.691-13.016-4.691C50.691,45.754,46.313,47.385,41.543,48.459z"/>
<path fill="#3D925A" d="M4.85,49.83c3.709-0.15,7.27-0.625,10.635-1.385C11.671,47.58,8.118,46.35,4.85,44.869V49.83z"/>
<path fill="#7DAB76" d="M4.85,42.414v2.453c3.27,1.484,6.826,2.713,10.645,3.58c4.748-1.076,9.117-2.695,13-4.691
	c-5.363-2.762-9.805-6.232-13.037-9.969C12.729,36.943,9.129,39.904,4.85,42.414z"/>
<path fill="#3D925A" d="M78.232,44.869c-3.266,1.482-6.818,2.711-10.631,3.576c3.365,0.76,6.924,1.231,10.631,1.385V44.869z"/>
<path fill="#7DAB76" d="M78.232,44.867v-2.453c-4.281-2.51-7.883-5.471-10.611-8.627c-3.229,3.736-7.668,7.207-13.029,9.969
	c3.883,1.996,8.254,3.615,13,4.691C71.408,47.58,74.963,46.352,78.232,44.867z"/>
<path fill="#FFDC09" d="M73.791,56.49c-1.939-1.234-3.771-2.399-6.169-2.399s-4.229,1.167-6.168,2.401
	c-2.007,1.277-4.081,2.601-6.867,2.601s-4.864-1.321-6.873-2.601c-1.94-1.235-3.773-2.401-6.172-2.401s-4.231,1.167-6.172,2.401
	c-2.009,1.277-4.086,2.601-6.871,2.601c-2.786,0-4.862-1.321-6.868-2.601c-1.938-1.235-3.77-2.401-6.167-2.401
	c-2.399,0-4.231,1.165-6.17,2.399c-1.352,0.859-2.739,1.732-4.349,2.216c0.107,1.837,0.322,3.994,0.721,6.345
	c1.146-0.476,2.198-1.139,3.227-1.791c1.944-1.232,3.955-2.509,6.571-2.509c2.616,0,4.626,1.274,6.569,2.509
	c2.004,1.272,3.897,2.475,6.466,2.475c2.567,0,4.462-1.201,6.469-2.475c1.946-1.232,3.958-2.509,6.574-2.509
	s4.628,1.274,6.573,2.509c2.008,1.272,3.903,2.475,6.472,2.475c2.567,0,4.46-1.201,6.465-2.475c1.944-1.232,3.954-2.509,6.57-2.509
	c2.616,0,4.626,1.274,6.569,2.509c1.028,0.652,2.08,1.314,3.225,1.79c0.398-2.351,0.614-4.508,0.721-6.345
	C76.528,58.223,75.142,57.35,73.791,56.49z"/>
<path fill="#FFEB98" d="M45.301,102.764v-2.902l-3.438,3.381l-2.9-2.821v-4.382l2.9,2.832l3.438-3.398v-4.787l-3.438,3.381
	l-2.9-2.819V86.65l2.9,2.834l3.438-3.398v-5.188l-3.438,3.382l-2.9-2.82v-4.297l2.9,2.646l4.903-4.777l-5.198-4.41l-5.693,4.941
	v26.283c2.611,1.301,4.63,2.133,5.672,2.534C42.314,104.08,43.626,103.543,45.301,102.764z"/>
<path fill="#FFEB98" d="M32.274,91.152l-3.439,3.531l-2.9-2.963v-4.56l2.9,2.877l3.439-3.451v-5.413l-3.439,3.432l-2.9-2.862v-4.582
	l2.9,2.646l4.904-4.777l-5.199-4.41l-5.693,4.941V93.76c3.32,2.525,6.562,4.562,9.428,6.172L32.274,91.152L32.274,91.152z"/>
<path fill="#FFEB98" d="M54.889,79.807l4.904-4.777l-5.199-4.41l-5.693,4.941v25.416c2.769-1.461,6.026-3.382,9.428-5.81v-4.015
	l-3.439,3.531l-2.9-2.963v-4.56l2.9,2.877l3.439-3.451v-5.413l-3.439,3.432l-2.9-2.862v-4.582L54.889,79.807z"/>
<path fill="#FFEB98" d="M67.916,79.807l4.904-4.777l-5.199-4.41l-5.693,4.941v16.877c0.637-0.514,1.275-1.041,1.912-1.592
	c3.134-2.712,5.588-5.771,7.516-8.949v-0.722l-3.439,3.433l-2.9-2.863v-4.582L67.916,79.807z"/>
<path fill="#FFEB98" d="M15.808,79.807l4.904-4.777l-5.199-4.41L9.82,75.561v2.812c2.129,4.417,5.146,8.769,9.428,12.471v-9.668
	l-3.439,3.433l-2.9-2.863v-4.582L15.808,79.807z"/>
</svg>
